<?xml version="1.0" encoding="UTF-8"?>
<svg xmlns="http://www.w3.org/2000/svg" width="246" height="246" viewBox="133 38 246 246" role="img" aria-label="Neil's Magic Carpets favicon">
  <title>Neil&apos;s Magic Carpets favicon</title>
  <circle cx="255.93" cy="160.77" r="122.67" fill="#B7860B"/>
  <g transform="scale(0.33333333)">
    <path d="M 628.0 307.0 L 623.0 312.0 L 622.0 324.0 L 631.0 359.0 L 639.0 410.0 L 640.0 411.0 L 640.0 417.0 L 641.0 418.0 L 644.0 443.0 L 645.0 444.0 L 646.0 460.0 L 647.0 461.0 L 648.0 488.0 L 649.0 489.0 L 649.0 544.0 L 648.0 545.0 L 648.0 564.0 L 647.0 565.0 L 645.0 616.0 L 644.0 617.0 L 644.0 631.0 L 643.0 632.0 L 643.0 646.0 L 647.0 655.0 L 652.0 658.0 L 659.0 660.0 L 670.0 659.0 L 675.0 657.0 L 681.0 652.0 L 685.0 643.0 L 684.0 605.0 L 685.0 604.0 L 685.0 597.0 L 686.0 596.0 L 688.0 574.0 L 689.0 573.0 L 690.0 511.0 L 689.0 510.0 L 688.0 475.0 L 687.0 474.0 L 685.0 450.0 L 684.0 449.0 L 684.0 443.0 L 683.0 442.0 L 683.0 436.0 L 682.0 435.0 L 682.0 429.0 L 681.0 428.0 L 681.0 422.0 L 678.0 407.0 L 679.0 402.0 L 689.0 410.0 L 738.0 456.0 L 771.0 489.0 L 815.0 537.0 L 867.0 586.0 L 881.0 603.0 L 889.0 622.0 L 898.0 633.0 L 910.0 640.0 L 917.0 642.0 L 926.0 642.0 L 934.0 640.0 L 943.0 635.0 L 950.0 626.0 L 951.0 618.0 L 948.0 606.0 L 940.0 589.0 L 932.0 566.0 L 923.0 528.0 L 918.0 499.0 L 916.0 494.0 L 915.0 481.0 L 914.0 480.0 L 914.0 474.0 L 912.0 467.0 L 912.0 461.0 L 911.0 460.0 L 911.0 454.0 L 910.0 453.0 L 908.0 433.0 L 907.0 432.0 L 907.0 425.0 L 906.0 424.0 L 904.0 386.0 L 903.0 385.0 L 903.0 373.0 L 902.0 372.0 L 902.0 360.0 L 901.0 359.0 L 900.0 327.0 L 896.0 316.0 L 888.0 310.0 L 877.0 309.0 L 870.0 312.0 L 867.0 315.0 L 865.0 320.0 L 865.0 345.0 L 866.0 346.0 L 866.0 363.0 L 867.0 364.0 L 868.0 390.0 L 869.0 391.0 L 869.0 401.0 L 870.0 402.0 L 870.0 414.0 L 871.0 415.0 L 871.0 425.0 L 872.0 426.0 L 876.0 466.0 L 877.0 467.0 L 878.0 481.0 L 880.0 489.0 L 881.0 505.0 L 887.0 536.0 L 887.0 540.0 L 885.0 541.0 L 830.0 489.0 L 699.0 358.0 L 657.0 308.0 L 651.0 305.0 L 643.0 303.0 L 634.0 304.0 Z" fill="#000000" fill-rule="evenodd"/>
  </g>
</svg>
