<?xml version="1.0" encoding="UTF-8"?>
<svg xmlns="http://www.w3.org/2000/svg" width="1938" height="339" viewBox="0 0 1938 339" role="img" aria-label="Neil's Magic Carpets wordmark">
  <title>Neil&apos;s Magic Carpets</title>
<path d="M 1055 118 L 1049 124 L 1050 174 L 1051 175 L 1051 185 L 1052 186 L 1052 196 L 1053 197 L 1053 208 L 1057 214 L 1064 215 L 1068 213 L 1072 209 L 1073 206 L 1072 190 L 1071 189 L 1071 166 L 1070 165 L 1066 124 L 1061 118 Z M 336 118 L 333 120 L 331 124 L 332 168 L 333 169 L 335 207 L 338 212 L 342 214 L 346 214 L 354 209 L 356 203 L 354 193 L 353 161 L 351 154 L 348 123 L 344 118 Z M 268 119 L 259 123 L 252 128 L 237 146 L 231 161 L 231 166 L 230 167 L 231 179 L 237 191 L 250 204 L 269 209 L 289 208 L 296 205 L 305 199 L 313 190 L 312 182 L 310 180 L 305 180 L 299 185 L 294 192 L 287 196 L 283 197 L 268 197 L 265 196 L 258 190 L 254 180 L 255 162 L 262 158 L 287 158 L 288 159 L 300 160 L 303 158 L 305 154 L 305 148 L 299 132 L 295 126 L 280 119 L 275 118 Z M 258 146 L 262 137 L 265 134 L 272 131 L 284 132 L 289 136 L 291 140 L 291 145 L 288 148 L 284 149 L 263 149 Z M 1010 108 L 1003 108 L 1000 110 L 998 115 L 998 128 L 999 131 L 997 133 L 994 133 L 989 130 L 979 127 L 964 128 L 958 131 L 943 142 L 936 154 L 933 164 L 933 179 L 939 194 L 950 204 L 968 210 L 983 209 L 994 204 L 998 204 L 1000 208 L 999 241 L 998 242 L 997 254 L 991 271 L 983 285 L 975 292 L 966 294 L 954 291 L 949 288 L 942 277 L 939 275 L 935 275 L 932 278 L 932 286 L 943 298 L 963 306 L 976 306 L 985 303 L 992 299 L 997 294 L 1014 269 L 1019 257 L 1021 247 L 1023 223 L 1024 222 L 1023 193 L 1022 192 L 1022 168 L 1020 160 L 1021 151 L 1019 144 L 1019 135 L 1018 134 L 1016 115 L 1015 112 Z M 969 138 L 980 138 L 985 140 L 997 151 L 998 154 L 999 183 L 993 190 L 982 195 L 971 195 L 962 191 L 957 184 L 953 170 L 953 161 L 955 151 L 957 147 L 963 141 Z M 502 104 L 489 105 L 478 111 L 470 119 L 466 129 L 466 141 L 475 158 L 480 172 L 483 177 L 485 188 L 489 200 L 489 204 L 486 214 L 478 220 L 471 220 L 467 218 L 462 212 L 460 206 L 458 204 L 453 204 L 451 207 L 452 216 L 461 227 L 467 230 L 477 230 L 498 223 L 506 214 L 510 202 L 509 186 L 502 171 L 501 165 L 490 143 L 486 132 L 486 126 L 489 119 L 495 115 L 502 115 L 506 117 L 510 124 L 514 127 L 518 124 L 519 122 L 518 116 L 514 110 L 510 107 Z M 1133 96 L 1125 98 L 1119 101 L 1106 112 L 1098 123 L 1093 134 L 1092 145 L 1093 150 L 1099 163 L 1111 176 L 1119 180 L 1130 183 L 1148 183 L 1168 175 L 1173 171 L 1175 166 L 1174 162 L 1171 159 L 1167 158 L 1151 167 L 1143 169 L 1135 169 L 1126 165 L 1120 157 L 1116 146 L 1116 133 L 1119 121 L 1122 116 L 1129 109 L 1137 106 L 1148 109 L 1155 117 L 1158 117 L 1160 115 L 1160 109 L 1154 102 L 1146 98 Z M 885 96 L 873 99 L 864 104 L 848 120 L 847 127 L 848 129 L 852 130 L 856 128 L 863 119 L 872 113 L 881 109 L 889 110 L 894 116 L 897 130 L 895 154 L 892 156 L 883 151 L 870 148 L 864 148 L 857 150 L 848 155 L 842 161 L 837 170 L 837 179 L 840 185 L 845 190 L 855 195 L 885 194 L 888 198 L 885 220 L 891 226 L 897 226 L 903 221 L 905 217 L 906 201 L 908 196 L 908 184 L 914 165 L 915 149 L 917 142 L 917 131 L 914 115 L 908 106 L 898 99 Z M 854 170 L 860 164 L 865 162 L 876 163 L 887 169 L 890 174 L 889 181 L 886 183 L 878 185 L 867 185 L 860 182 L 855 177 Z M 1041 72 L 1042 77 L 1045 80 L 1050 82 L 1061 81 L 1067 76 L 1066 70 L 1055 65 L 1047 65 L 1042 69 Z M 324 69 L 324 76 L 330 81 L 334 82 L 343 81 L 348 78 L 350 75 L 350 72 L 348 69 L 336 64 L 328 65 Z M 454 53 L 446 51 L 443 52 L 439 56 L 434 72 L 425 92 L 425 97 L 426 98 L 432 99 L 438 94 L 442 86 L 455 67 L 457 62 L 457 57 Z M 381 41 L 376 45 L 375 58 L 376 59 L 376 83 L 377 84 L 377 97 L 378 98 L 378 120 L 379 121 L 379 135 L 380 136 L 380 148 L 381 149 L 381 165 L 382 166 L 382 174 L 384 184 L 384 198 L 385 199 L 385 208 L 386 210 L 390 213 L 398 213 L 402 211 L 405 207 L 406 195 L 403 186 L 401 170 L 400 169 L 400 154 L 399 153 L 397 119 L 396 118 L 395 100 L 394 99 L 394 78 L 392 68 L 392 56 L 390 48 L 387 43 Z M 183 36 L 177 35 L 174 37 L 172 41 L 173 76 L 174 77 L 174 102 L 175 103 L 175 118 L 176 119 L 176 141 L 183 171 L 183 177 L 184 178 L 183 181 L 179 179 L 86 84 L 66 60 L 57 51 L 48 38 L 44 36 L 36 36 L 33 39 L 33 56 L 37 72 L 39 90 L 43 105 L 44 118 L 45 119 L 45 129 L 46 130 L 47 189 L 46 190 L 46 224 L 45 225 L 44 240 L 46 249 L 49 253 L 53 255 L 59 255 L 65 250 L 67 244 L 66 225 L 67 224 L 67 207 L 68 206 L 68 145 L 67 144 L 67 130 L 66 129 L 66 123 L 62 102 L 62 93 L 63 92 L 65 92 L 87 111 L 112 137 L 122 145 L 135 162 L 149 175 L 158 189 L 176 210 L 181 224 L 186 229 L 193 233 L 200 234 L 207 231 L 212 224 L 212 211 L 204 185 L 201 164 L 198 153 L 198 146 L 197 145 L 197 120 L 196 119 L 195 89 L 194 88 L 193 72 L 192 71 L 191 52 L 189 44 Z M 632 34 L 629 41 L 628 97 L 627 98 L 627 140 L 626 141 L 626 151 L 625 152 L 624 184 L 622 193 L 620 226 L 618 235 L 618 248 L 620 252 L 623 255 L 629 257 L 634 255 L 638 249 L 639 244 L 638 234 L 639 233 L 640 216 L 642 207 L 642 195 L 644 185 L 644 169 L 645 168 L 645 156 L 646 155 L 646 143 L 647 142 L 647 129 L 648 128 L 648 119 L 650 117 L 653 119 L 657 127 L 668 157 L 680 183 L 685 201 L 690 206 L 699 207 L 707 201 L 711 192 L 716 185 L 731 169 L 742 155 L 757 140 L 760 139 L 784 113 L 788 112 L 790 114 L 790 125 L 791 126 L 792 170 L 793 171 L 793 183 L 794 184 L 794 193 L 796 202 L 796 217 L 798 222 L 805 226 L 809 226 L 816 223 L 821 217 L 822 210 L 820 203 L 819 177 L 817 170 L 817 161 L 816 160 L 816 151 L 815 150 L 814 97 L 813 96 L 813 53 L 811 48 L 809 46 L 803 45 L 796 49 L 792 59 L 790 83 L 783 98 L 761 121 L 753 127 L 723 157 L 719 163 L 706 177 L 702 178 L 698 173 L 691 153 L 686 144 L 668 101 L 668 97 L 656 64 L 650 41 L 648 37 L 642 32 L 636 32 Z" fill="#000000" fill-rule="evenodd"/>
  <path d="M 1713 119 L 1704 123 L 1696 129 L 1683 145 L 1680 151 L 1676 166 L 1677 181 L 1680 188 L 1685 195 L 1696 205 L 1710 209 L 1733 209 L 1737 208 L 1747 202 L 1758 190 L 1758 186 L 1754 181 L 1749 181 L 1744 185 L 1742 189 L 1737 194 L 1727 198 L 1710 197 L 1704 192 L 1701 187 L 1699 180 L 1699 164 L 1701 161 L 1705 159 L 1745 160 L 1748 157 L 1749 154 L 1748 146 L 1741 129 L 1738 126 L 1723 119 Z M 1703 142 L 1711 133 L 1716 131 L 1723 131 L 1729 133 L 1734 138 L 1735 146 L 1731 149 L 1726 150 L 1709 150 L 1703 147 Z M 1578 112 L 1574 117 L 1574 163 L 1573 164 L 1573 179 L 1572 180 L 1572 255 L 1573 256 L 1573 268 L 1572 269 L 1572 281 L 1571 282 L 1571 296 L 1573 299 L 1583 300 L 1586 299 L 1589 296 L 1591 291 L 1591 276 L 1592 275 L 1593 258 L 1594 257 L 1594 201 L 1596 196 L 1601 196 L 1615 200 L 1633 200 L 1639 198 L 1647 193 L 1651 188 L 1660 168 L 1660 152 L 1658 145 L 1652 134 L 1646 128 L 1635 124 L 1630 124 L 1617 128 L 1603 136 L 1595 139 L 1593 137 L 1592 122 L 1589 115 L 1585 112 Z M 1630 137 L 1635 142 L 1638 153 L 1638 168 L 1633 182 L 1627 188 L 1624 189 L 1612 189 L 1600 184 L 1596 180 L 1595 176 L 1595 164 L 1597 159 L 1615 142 L 1622 138 Z M 1555 111 L 1546 110 L 1541 112 L 1527 125 L 1520 135 L 1516 135 L 1514 133 L 1511 121 L 1507 114 L 1500 112 L 1495 114 L 1493 117 L 1493 126 L 1498 145 L 1499 155 L 1501 161 L 1501 168 L 1507 192 L 1508 207 L 1510 213 L 1512 214 L 1521 214 L 1525 212 L 1527 209 L 1526 193 L 1523 181 L 1523 161 L 1522 160 L 1523 151 L 1533 136 L 1542 127 L 1549 126 L 1552 128 L 1555 128 L 1560 125 L 1561 123 L 1560 115 Z M 1891 105 L 1878 105 L 1869 109 L 1858 119 L 1854 128 L 1853 137 L 1855 145 L 1861 154 L 1872 178 L 1874 188 L 1878 199 L 1878 209 L 1875 216 L 1872 219 L 1864 222 L 1856 218 L 1847 205 L 1844 205 L 1841 207 L 1840 210 L 1841 216 L 1852 229 L 1858 231 L 1866 231 L 1870 229 L 1882 227 L 1888 224 L 1895 217 L 1899 208 L 1899 203 L 1900 202 L 1899 188 L 1894 179 L 1889 163 L 1886 159 L 1874 133 L 1874 125 L 1876 121 L 1880 117 L 1885 115 L 1891 116 L 1894 118 L 1899 126 L 1902 128 L 1906 125 L 1907 121 L 1905 115 L 1899 109 Z M 1440 96 L 1428 100 L 1423 103 L 1408 119 L 1407 124 L 1409 127 L 1413 128 L 1417 125 L 1418 122 L 1423 117 L 1432 111 L 1439 108 L 1447 108 L 1453 114 L 1457 128 L 1456 145 L 1454 153 L 1451 154 L 1445 150 L 1435 147 L 1422 147 L 1415 149 L 1410 152 L 1400 163 L 1398 168 L 1398 176 L 1403 185 L 1414 192 L 1424 194 L 1430 194 L 1440 191 L 1446 192 L 1449 197 L 1447 205 L 1446 218 L 1450 223 L 1458 224 L 1464 219 L 1466 214 L 1466 201 L 1469 189 L 1470 175 L 1474 163 L 1477 131 L 1474 116 L 1470 109 L 1464 102 L 1455 97 Z M 1415 168 L 1420 162 L 1425 160 L 1437 161 L 1442 163 L 1449 169 L 1450 177 L 1448 180 L 1439 183 L 1425 182 L 1417 177 L 1415 174 Z M 1787 52 L 1783 55 L 1782 58 L 1786 106 L 1784 110 L 1781 112 L 1757 113 L 1755 115 L 1755 118 L 1759 121 L 1779 120 L 1785 122 L 1787 125 L 1788 147 L 1789 148 L 1789 168 L 1790 169 L 1791 218 L 1794 224 L 1798 228 L 1804 230 L 1809 228 L 1812 225 L 1814 220 L 1814 207 L 1813 206 L 1812 187 L 1810 180 L 1810 156 L 1809 155 L 1809 144 L 1808 143 L 1809 125 L 1812 122 L 1815 121 L 1822 121 L 1823 120 L 1830 122 L 1836 121 L 1838 119 L 1839 115 L 1838 111 L 1833 108 L 1823 108 L 1818 110 L 1811 110 L 1808 108 L 1805 99 L 1804 87 L 1803 86 L 1803 77 L 1799 58 L 1795 53 Z M 1362 38 L 1348 37 L 1347 38 L 1341 38 L 1326 41 L 1311 47 L 1299 55 L 1284 67 L 1271 80 L 1262 96 L 1255 120 L 1256 139 L 1259 155 L 1267 172 L 1279 187 L 1283 194 L 1289 199 L 1304 207 L 1314 210 L 1325 211 L 1335 215 L 1345 214 L 1354 210 L 1357 210 L 1362 207 L 1370 205 L 1380 200 L 1384 196 L 1384 189 L 1381 186 L 1374 186 L 1363 193 L 1353 197 L 1334 198 L 1322 195 L 1306 186 L 1300 180 L 1286 157 L 1281 138 L 1279 114 L 1284 94 L 1292 81 L 1307 67 L 1323 57 L 1325 57 L 1332 53 L 1343 50 L 1357 49 L 1375 53 L 1384 62 L 1388 63 L 1392 61 L 1393 56 L 1392 53 L 1388 49 L 1375 41 Z" fill="#2D5340" fill-rule="evenodd"/>
</svg>
