<?xml version="1.0" encoding="UTF-8"?>
<svg xmlns="http://www.w3.org/2000/svg" width="1939" height="350" viewBox="0 0 1939 350" role="img" aria-label="Neil's Magic Carpets wordmark">
  <title>Neil&apos;s Magic Carpets</title>
<path d="M 279 127 L 273 129 L 265 134 L 253 146 L 247 154 L 241 168 L 240 185 L 244 196 L 259 212 L 276 217 L 301 216 L 311 211 L 322 202 L 324 198 L 323 190 L 319 188 L 314 189 L 308 197 L 299 204 L 291 206 L 279 206 L 272 203 L 268 199 L 263 186 L 264 172 L 271 167 L 300 167 L 310 169 L 315 165 L 316 162 L 315 154 L 308 138 L 303 133 L 289 127 Z M 268 153 L 272 146 L 275 143 L 281 140 L 295 141 L 299 144 L 301 148 L 301 154 L 297 157 L 291 157 L 290 158 L 272 157 Z M 1070 126 L 1065 128 L 1061 135 L 1062 172 L 1063 173 L 1064 194 L 1065 195 L 1065 204 L 1066 205 L 1066 216 L 1070 221 L 1077 222 L 1081 220 L 1084 217 L 1085 214 L 1084 191 L 1083 190 L 1083 173 L 1082 172 L 1078 132 L 1074 127 Z M 351 125 L 347 126 L 343 130 L 342 133 L 343 172 L 344 173 L 344 182 L 345 183 L 345 192 L 346 193 L 346 210 L 347 211 L 347 216 L 351 221 L 360 222 L 364 220 L 368 214 L 367 194 L 366 193 L 366 184 L 365 183 L 365 169 L 362 156 L 360 132 L 357 127 Z M 1024 117 L 1017 117 L 1014 120 L 1012 125 L 1013 140 L 1011 142 L 993 136 L 982 136 L 976 138 L 958 151 L 950 166 L 950 170 L 948 175 L 949 189 L 954 201 L 959 207 L 969 213 L 983 217 L 996 216 L 1008 211 L 1011 211 L 1014 215 L 1013 249 L 1012 250 L 1011 261 L 1006 274 L 996 291 L 987 297 L 980 298 L 967 294 L 964 292 L 960 287 L 958 282 L 955 280 L 951 280 L 948 283 L 948 290 L 957 301 L 981 310 L 993 309 L 1006 303 L 1027 275 L 1033 259 L 1034 244 L 1037 231 L 1034 158 L 1032 150 L 1030 125 L 1028 120 Z M 986 146 L 992 146 L 1002 150 L 1012 161 L 1013 191 L 1005 199 L 994 203 L 987 203 L 977 199 L 972 192 L 972 189 L 968 179 L 969 163 L 973 154 L 979 149 Z M 523 109 L 512 109 L 502 113 L 496 117 L 489 124 L 485 134 L 485 139 L 484 140 L 485 147 L 495 165 L 499 177 L 502 182 L 503 189 L 508 204 L 508 212 L 506 219 L 500 226 L 497 227 L 490 227 L 486 225 L 481 220 L 478 212 L 475 210 L 470 211 L 469 213 L 470 223 L 477 233 L 488 238 L 501 236 L 516 231 L 523 225 L 529 215 L 530 211 L 530 194 L 525 184 L 521 170 L 506 139 L 506 131 L 508 126 L 516 120 L 524 121 L 530 127 L 530 129 L 533 132 L 537 132 L 539 130 L 540 126 L 537 118 L 530 112 Z M 1138 107 L 1123 116 L 1113 127 L 1105 142 L 1104 156 L 1111 172 L 1125 186 L 1140 191 L 1160 191 L 1181 182 L 1186 176 L 1184 169 L 1181 167 L 1177 167 L 1168 173 L 1155 178 L 1144 177 L 1138 174 L 1130 163 L 1128 157 L 1127 143 L 1130 132 L 1133 126 L 1141 118 L 1146 116 L 1153 116 L 1160 119 L 1164 125 L 1166 126 L 1169 126 L 1171 124 L 1172 120 L 1170 116 L 1165 111 L 1159 108 L 1151 106 Z M 900 106 L 889 109 L 880 114 L 864 130 L 864 137 L 867 139 L 870 139 L 873 137 L 880 128 L 895 119 L 901 118 L 906 120 L 910 125 L 913 138 L 911 163 L 906 164 L 900 160 L 889 157 L 879 157 L 873 159 L 864 164 L 858 171 L 854 180 L 854 186 L 857 193 L 862 198 L 873 203 L 891 203 L 901 201 L 904 205 L 902 228 L 907 232 L 914 232 L 918 229 L 921 223 L 921 213 L 924 203 L 924 191 L 930 172 L 930 163 L 933 150 L 933 141 L 930 125 L 924 116 L 920 112 L 906 106 Z M 871 179 L 878 172 L 890 171 L 901 175 L 905 179 L 906 187 L 904 190 L 899 192 L 885 193 L 877 190 L 872 185 Z M 1054 79 L 1055 86 L 1058 89 L 1065 91 L 1069 91 L 1077 88 L 1080 83 L 1078 78 L 1065 73 L 1057 75 Z M 335 77 L 336 85 L 342 89 L 352 90 L 359 87 L 362 84 L 362 79 L 359 76 L 348 72 L 339 73 Z M 471 58 L 463 57 L 460 58 L 457 61 L 449 83 L 443 95 L 442 104 L 451 105 L 456 100 L 462 89 L 473 74 L 475 70 L 475 62 Z M 394 49 L 389 54 L 389 71 L 390 72 L 390 97 L 392 107 L 392 127 L 393 128 L 393 139 L 394 140 L 395 169 L 396 170 L 396 178 L 397 179 L 397 187 L 399 197 L 399 213 L 402 219 L 412 220 L 418 217 L 421 212 L 421 201 L 419 197 L 415 177 L 415 162 L 414 161 L 413 142 L 412 141 L 412 127 L 411 126 L 410 110 L 409 109 L 409 89 L 408 88 L 408 80 L 406 72 L 406 61 L 403 53 L 398 49 Z M 45 47 L 42 50 L 42 67 L 47 85 L 48 98 L 53 119 L 54 138 L 55 139 L 55 154 L 56 155 L 55 226 L 54 227 L 54 240 L 53 241 L 53 253 L 56 260 L 61 263 L 66 263 L 72 260 L 75 254 L 75 219 L 76 218 L 76 209 L 77 208 L 77 161 L 76 160 L 76 141 L 75 140 L 75 134 L 72 120 L 72 112 L 71 111 L 71 103 L 72 102 L 74 102 L 84 110 L 120 146 L 130 153 L 144 171 L 160 186 L 166 196 L 183 215 L 192 234 L 200 240 L 205 242 L 211 242 L 215 240 L 221 233 L 222 223 L 213 194 L 209 165 L 207 160 L 205 106 L 204 105 L 203 87 L 201 80 L 200 60 L 196 50 L 191 46 L 187 46 L 182 50 L 181 54 L 182 68 L 183 69 L 183 107 L 184 108 L 184 118 L 185 119 L 185 145 L 186 146 L 186 153 L 189 169 L 193 184 L 193 188 L 190 189 L 96 95 L 65 60 L 61 53 L 56 48 L 52 46 Z M 653 43 L 650 46 L 648 53 L 648 101 L 647 102 L 647 111 L 646 112 L 646 118 L 647 119 L 646 155 L 645 156 L 645 172 L 644 173 L 644 191 L 642 199 L 640 232 L 638 241 L 638 255 L 641 260 L 644 262 L 651 262 L 656 258 L 658 253 L 658 236 L 659 235 L 659 227 L 661 219 L 661 204 L 663 194 L 663 177 L 664 176 L 666 138 L 667 137 L 667 129 L 669 125 L 671 126 L 677 138 L 688 167 L 700 194 L 702 205 L 704 209 L 711 214 L 718 214 L 724 210 L 735 192 L 750 176 L 759 164 L 775 148 L 778 147 L 797 125 L 803 120 L 806 120 L 808 123 L 808 134 L 809 135 L 810 178 L 811 179 L 811 190 L 812 191 L 812 199 L 814 208 L 814 223 L 816 228 L 821 232 L 828 232 L 833 230 L 838 225 L 839 215 L 837 205 L 837 188 L 834 174 L 832 143 L 831 142 L 832 126 L 831 125 L 831 105 L 830 104 L 830 60 L 828 56 L 825 54 L 819 54 L 816 55 L 812 59 L 809 69 L 809 78 L 808 79 L 807 91 L 805 97 L 798 109 L 774 133 L 761 144 L 723 186 L 720 186 L 716 180 L 709 160 L 687 110 L 686 103 L 675 73 L 670 52 L 665 44 L 661 42 Z" fill="#FFFFFF" fill-rule="evenodd"/>
  <path d="M 1707 130 L 1701 132 L 1693 137 L 1683 147 L 1676 157 L 1671 170 L 1671 175 L 1670 176 L 1671 190 L 1673 196 L 1677 202 L 1689 214 L 1703 218 L 1727 218 L 1736 214 L 1743 209 L 1750 201 L 1751 195 L 1748 191 L 1742 190 L 1738 193 L 1736 197 L 1729 204 L 1715 208 L 1704 206 L 1697 200 L 1693 191 L 1693 184 L 1692 183 L 1693 173 L 1695 171 L 1705 170 L 1706 169 L 1709 170 L 1724 169 L 1725 170 L 1737 171 L 1742 166 L 1741 155 L 1735 141 L 1727 134 L 1715 130 Z M 1697 153 L 1704 145 L 1711 142 L 1716 142 L 1723 144 L 1726 147 L 1728 151 L 1728 156 L 1725 159 L 1722 160 L 1703 160 L 1699 159 L 1697 157 Z M 1574 123 L 1569 128 L 1569 172 L 1568 173 L 1568 185 L 1567 186 L 1567 265 L 1568 266 L 1568 273 L 1567 274 L 1567 286 L 1566 287 L 1566 302 L 1569 305 L 1577 306 L 1580 305 L 1584 301 L 1586 294 L 1586 279 L 1588 272 L 1588 217 L 1589 216 L 1589 207 L 1590 206 L 1597 206 L 1607 209 L 1615 209 L 1616 210 L 1625 210 L 1634 207 L 1644 199 L 1652 183 L 1654 177 L 1654 164 L 1651 154 L 1644 142 L 1640 139 L 1630 135 L 1623 135 L 1610 139 L 1593 149 L 1589 149 L 1587 145 L 1587 134 L 1585 128 L 1579 123 Z M 1624 148 L 1630 154 L 1632 164 L 1632 177 L 1627 191 L 1621 197 L 1614 199 L 1609 199 L 1597 195 L 1591 190 L 1590 187 L 1590 173 L 1591 171 L 1609 153 L 1615 149 Z M 1550 122 L 1541 121 L 1534 125 L 1526 132 L 1516 146 L 1512 146 L 1510 144 L 1507 131 L 1502 125 L 1494 124 L 1490 126 L 1489 128 L 1489 138 L 1494 155 L 1498 184 L 1504 208 L 1504 218 L 1506 222 L 1516 223 L 1520 221 L 1522 218 L 1521 199 L 1518 188 L 1518 181 L 1519 180 L 1518 163 L 1527 149 L 1535 140 L 1540 137 L 1544 137 L 1547 139 L 1552 139 L 1556 134 L 1555 127 Z M 1879 116 L 1871 117 L 1858 123 L 1849 133 L 1846 141 L 1847 154 L 1858 173 L 1859 178 L 1864 187 L 1866 197 L 1870 207 L 1869 221 L 1867 225 L 1861 229 L 1856 230 L 1850 227 L 1844 221 L 1842 215 L 1839 213 L 1834 216 L 1834 224 L 1843 236 L 1850 239 L 1859 239 L 1881 232 L 1887 225 L 1891 216 L 1891 198 L 1890 195 L 1886 189 L 1882 176 L 1874 162 L 1867 145 L 1867 136 L 1871 130 L 1877 127 L 1886 130 L 1891 138 L 1893 139 L 1897 138 L 1898 136 L 1897 127 L 1889 119 Z M 1440 107 L 1426 111 L 1421 114 L 1405 131 L 1405 137 L 1408 139 L 1412 139 L 1415 136 L 1416 133 L 1427 124 L 1435 120 L 1440 119 L 1444 120 L 1450 127 L 1453 140 L 1451 163 L 1448 164 L 1441 160 L 1431 157 L 1420 157 L 1414 159 L 1403 166 L 1399 171 L 1396 177 L 1395 185 L 1399 193 L 1404 198 L 1411 202 L 1425 204 L 1436 201 L 1442 201 L 1445 205 L 1444 218 L 1442 222 L 1442 225 L 1445 230 L 1452 233 L 1457 231 L 1462 224 L 1462 212 L 1465 201 L 1466 186 L 1471 168 L 1473 141 L 1470 127 L 1466 120 L 1458 112 L 1448 108 Z M 1412 180 L 1413 177 L 1421 171 L 1432 171 L 1441 175 L 1445 179 L 1447 185 L 1444 190 L 1436 192 L 1425 192 L 1417 189 L 1414 186 Z M 1783 64 L 1778 66 L 1776 69 L 1779 119 L 1775 123 L 1771 124 L 1750 124 L 1748 126 L 1748 129 L 1752 132 L 1763 132 L 1764 131 L 1775 132 L 1780 136 L 1781 156 L 1782 157 L 1782 175 L 1783 176 L 1784 227 L 1786 231 L 1791 236 L 1795 238 L 1801 237 L 1805 233 L 1807 227 L 1805 196 L 1803 188 L 1803 165 L 1802 164 L 1802 153 L 1801 152 L 1802 137 L 1806 133 L 1809 132 L 1827 133 L 1831 130 L 1832 124 L 1829 120 L 1826 119 L 1804 121 L 1800 118 L 1793 71 L 1789 66 Z M 1358 51 L 1347 51 L 1326 55 L 1312 61 L 1300 69 L 1282 84 L 1273 94 L 1263 113 L 1258 130 L 1258 146 L 1262 167 L 1268 180 L 1280 195 L 1284 202 L 1290 208 L 1305 216 L 1314 219 L 1325 220 L 1336 224 L 1342 224 L 1346 222 L 1349 222 L 1379 210 L 1384 204 L 1383 198 L 1379 195 L 1375 195 L 1357 205 L 1340 208 L 1322 204 L 1308 196 L 1301 189 L 1299 184 L 1290 172 L 1288 167 L 1283 145 L 1282 124 L 1287 106 L 1296 92 L 1312 78 L 1326 70 L 1340 65 L 1350 63 L 1358 63 L 1374 67 L 1383 76 L 1389 76 L 1392 73 L 1391 66 L 1379 57 L 1372 54 Z" fill="#B7860B" fill-rule="evenodd"/>
</svg>
